# xmcd CD database file
#
# Track frame offsets:
#	150
#	22760
#	43952
#	64702
#	95637
#	113837
#	132650
#	154877
#	174155
#	191812
#	219272
#	242742
#	262305
#
# Disc length: 3856 seconds
#
# Revision: 0
# Processed by: cddbd v1.5.1PL0 Copyright (c) Steve Scherf et al.
# Submitted via: cdripper 1.0.7
#
DISCID=bc0f0e0d
DTITLE=The Mambo Brothers - We Got It Goin' On
DYEAR=1997
DGENRE=Blues
TTITLE0=Fannie Mae
TTITLE1=Dot
TTITLE2=She Walked Right In
TTITLE3=Got to Give It Up
TTITLE4=If the Blues Don't Get You
TTITLE5=Take It Easy
TTITLE6=Confusement
TTITLE7=Hard Times
TTITLE8=We Got It Goin' On 
TTITLE9=Wonderful World
TTITLE10=Tickle Window
TTITLE11=Good Love Bad Money
TTITLE12=Fat Woman
EXTD=YEAR: 1997
EXTT0=
EXTT1=
EXTT2=
EXTT3=
EXTT4=
EXTT5=
EXTT6=
EXTT7=
EXTT8=
EXTT9=
EXTT10=
EXTT11=
EXTT12=
PLAYORDER=
